<svg xmlns="http://www.w3.org/2000/svg" viewBox="-24 -24 928 508" role="img" aria-label="Selected work: FloodGuard, Knowra, Full-Stack Chat + Sentiment AI, GreenSight AI, Indian Sign Language Recognition">
<style>
  :root{background:#0B0D10}
  .lbl{font:600 11px ui-monospace,SFMono-Regular,Menlo,Consolas,monospace;letter-spacing:.12em;fill:#8B8F98}
  .val{font:700 26px -apple-system,'Segoe UI',Inter,Helvetica,Arial,sans-serif;fill:#ECE7DD}
  .sub{font:500 13px -apple-system,'Segoe UI',Inter,Helvetica,Arial,sans-serif;fill:#8B8F98}
  .ttl{font:700 15px -apple-system,'Segoe UI',Inter,Helvetica,Arial,sans-serif;fill:#ECE7DD}
  .cap{font:500 11px ui-monospace,SFMono-Regular,Menlo,Consolas,monospace;fill:#8B8F98}
  .txt{font:500 14px -apple-system,'Segoe UI',Inter,Helvetica,Arial,sans-serif;fill:#ECE7DD}
  .fade{transition:opacity .2s}
  .chip{font:500 11.5px ui-monospace,SFMono-Regular,Menlo,Consolas,monospace;fill:#ECE7DD}
  .face{fill:#181B21;stroke:#23272E;transition:stroke .2s}
  .num{font:700 12px ui-monospace,SFMono-Regular,Menlo,Consolas,monospace;fill:#FF7A3D;letter-spacing:.1em}
  .spine{font:700 16px -apple-system,'Segoe UI',Inter,Helvetica,Arial,sans-serif;fill:#ECE7DD}
  .big{font:700 20px -apple-system,'Segoe UI',Inter,Helvetica,Arial,sans-serif;fill:#ECE7DD}
  .slide{transition:transform .3s cubic-bezier(.2,.8,.2,1)}
  .card:hover .slide{transform:translateY(-34px)}
  .card:hover .face{stroke:#FF7A3D}
  .pp{opacity:0;transition:opacity .2s}
  .card:hover~#panel #pdef{opacity:0}
  #w0:hover~#panel #p0,#w1:hover~#panel #p1,#w2:hover~#panel #p2,#w3:hover~#panel #p3,#w4:hover~#panel #p4{opacity:1}
  @media (prefers-reduced-motion:reduce){*{animation:none!important;transition:none!important}}
</style>
<rect x="0.5" y="0.5" width="879" height="459" rx="16" fill="#0B0D10" stroke="#23272E"/>
<circle cx="44" cy="44" r="4" fill="#FF7A3D"/><text x="56" y="48" class="lbl" style="fill:#FF7A3D">03 — SELECTED WORK</text><text x="848" y="48" class="lbl" text-anchor="end">HOVER TO EXPLORE</text>
<clipPath id="clip"><rect x="1" y="1" width="878" height="458" rx="15"/></clipPath>
<g clip-path="url(#clip)">
<line x1="616" y1="80" x2="616" y2="424" stroke="#23272E"/>
<a id="w0" class="card" href="https://github.com/ABDULMUNAFZ/Hyperlocal-Intelligence-for-Flash-Flood-Prediction-Risk--Response"><g transform="rotate(-22 322 700)"><animateTransform attributeName="transform" type="rotate" from="0 322 700" to="-22 322 700" dur="1s" begin="0.2s" fill="freeze" calcMode="spline" keySplines=".2 .8 .2 1"/><g transform="translate(322 700)"><g class="slide"><rect x="-100" y="-520" width="200" height="300" rx="14" class="face"/><text x="-82" y="-488" class="num">01</text><text transform="translate(-70 -470) rotate(-90)" text-anchor="end" class="spine">FloodGuard</text></g></g></g></a>
<a id="w1" class="card" href="https://github.com/ABDULMUNAFZ/Knowra-Evidence-First-Intelligent-Knowledge-Assistant"><g transform="rotate(-11 322 700)"><animateTransform attributeName="transform" type="rotate" from="0 322 700" to="-11 322 700" dur="1s" begin="0.2s" fill="freeze" calcMode="spline" keySplines=".2 .8 .2 1"/><g transform="translate(322 700)"><g class="slide"><rect x="-100" y="-520" width="200" height="300" rx="14" class="face"/><text x="-82" y="-488" class="num">02</text><text transform="translate(-70 -470) rotate(-90)" text-anchor="end" class="spine">Knowra</text></g></g></g></a>
<a id="w2" class="card" href="https://full-stack-chatting-website.onrender.com"><g transform="rotate(0 322 700)"><animateTransform attributeName="transform" type="rotate" from="0 322 700" to="0 322 700" dur="1s" begin="0.2s" fill="freeze" calcMode="spline" keySplines=".2 .8 .2 1"/><g transform="translate(322 700)"><g class="slide"><rect x="-100" y="-520" width="200" height="300" rx="14" class="face"/><text x="-82" y="-488" class="num">03</text><text transform="translate(-70 -470) rotate(-90)" text-anchor="end" class="spine">Chat + Sentiment AI</text></g></g></g></a>
<a id="w3" class="card" href="https://github.com/ABDULMUNAFZ/Duality-AI-Offroad-Semantic-Segmentation-Challenge"><g transform="rotate(11 322 700)"><animateTransform attributeName="transform" type="rotate" from="0 322 700" to="11 322 700" dur="1s" begin="0.2s" fill="freeze" calcMode="spline" keySplines=".2 .8 .2 1"/><g transform="translate(322 700)"><g class="slide"><rect x="-100" y="-520" width="200" height="300" rx="14" class="face"/><text x="-82" y="-488" class="num">04</text><text transform="translate(-70 -470) rotate(-90)" text-anchor="end" class="spine">GreenSight AI</text></g></g></g></a>
<a id="w4" class="card" href="https://github.com/ABDULMUNAFZ/Indian-Sign-Language-Recognition-System"><g transform="rotate(22 322 700)"><animateTransform attributeName="transform" type="rotate" from="0 322 700" to="22 322 700" dur="1s" begin="0.2s" fill="freeze" calcMode="spline" keySplines=".2 .8 .2 1"/><g transform="translate(322 700)"><g class="slide"><rect x="-100" y="-520" width="200" height="300" rx="14" class="face"/><text x="-82" y="-488" class="num">05</text><text transform="translate(-70 -470) rotate(-90)" text-anchor="end" class="spine">Sign Language AI</text></g></g></g></a>
<g id="panel"><g id="pdef" class="fade"><text x="640" y="94" class="lbl">01 / 05</text><text x="640" y="136" class="big">FloodGuard</text><text x="640" y="166" class="sub">Hyperlocal flash-flood</text><text x="640" y="186" class="sub">prediction, risk and rescue for</text><text x="640" y="206" class="sub">Wayanad, Kerala: a 3D command</text><text x="640" y="226" class="sub">map for responders and a</text><text x="640" y="246" class="sub">citizen PWA. Smart India</text><text x="640" y="266" class="sub">Hackathon 2026.</text><rect x="640" y="284" width="52.5" height="22" rx="11" fill="none" stroke="#23272E"/><text x="666.25" y="299" text-anchor="middle" class="chip">React</text><rect x="700.5" y="284" width="87" height="22" rx="11" fill="none" stroke="#23272E"/><text x="744" y="299" text-anchor="middle" class="chip">TypeScript</text><rect x="640" y="312" width="66.30000000000001" height="22" rx="11" fill="none" stroke="#23272E"/><text x="673.15" y="327" text-anchor="middle" class="chip">FastAPI</text><rect x="714.3" y="312" width="66.30000000000001" height="22" rx="11" fill="none" stroke="#23272E"/><text x="747.4499999999999" y="327" text-anchor="middle" class="chip">PostGIS</text><rect x="640" y="340" width="66.30000000000001" height="22" rx="11" fill="none" stroke="#23272E"/><text x="673.15" y="355" text-anchor="middle" class="chip">XGBoost</text><text x="640" y="416" class="cap" style="fill:#FF7A3D">CLICK THE CARD TO OPEN ↗</text></g>
<g id="p0" class="pp"><text x="640" y="94" class="lbl">01 / 05</text><text x="640" y="136" class="big">FloodGuard</text><text x="640" y="166" class="sub">Hyperlocal flash-flood</text><text x="640" y="186" class="sub">prediction, risk and rescue for</text><text x="640" y="206" class="sub">Wayanad, Kerala: a 3D command</text><text x="640" y="226" class="sub">map for responders and a</text><text x="640" y="246" class="sub">citizen PWA. Smart India</text><text x="640" y="266" class="sub">Hackathon 2026.</text><rect x="640" y="284" width="52.5" height="22" rx="11" fill="none" stroke="#23272E"/><text x="666.25" y="299" text-anchor="middle" class="chip">React</text><rect x="700.5" y="284" width="87" height="22" rx="11" fill="none" stroke="#23272E"/><text x="744" y="299" text-anchor="middle" class="chip">TypeScript</text><rect x="640" y="312" width="66.30000000000001" height="22" rx="11" fill="none" stroke="#23272E"/><text x="673.15" y="327" text-anchor="middle" class="chip">FastAPI</text><rect x="714.3" y="312" width="66.30000000000001" height="22" rx="11" fill="none" stroke="#23272E"/><text x="747.4499999999999" y="327" text-anchor="middle" class="chip">PostGIS</text><rect x="640" y="340" width="66.30000000000001" height="22" rx="11" fill="none" stroke="#23272E"/><text x="673.15" y="355" text-anchor="middle" class="chip">XGBoost</text><text x="640" y="416" class="cap" style="fill:#FF7A3D">CLICK THE CARD TO OPEN ↗</text></g>
<g id="p1" class="pp"><text x="640" y="94" class="lbl">02 / 05</text><text x="640" y="136" class="big">Knowra</text><text x="640" y="166" class="sub">Evidence-first knowledge</text><text x="640" y="186" class="sub">assistant: hybrid pgvector +</text><text x="640" y="206" class="sub">BM25 search with reranking,</text><text x="640" y="226" class="sub">every answer traced to a cited</text><text x="640" y="246" class="sub">source passage.</text><rect x="640" y="264" width="52.5" height="22" rx="11" fill="none" stroke="#23272E"/><text x="666.25" y="279" text-anchor="middle" class="chip">React</text><rect x="700.5" y="264" width="87" height="22" rx="11" fill="none" stroke="#23272E"/><text x="744" y="279" text-anchor="middle" class="chip">TypeScript</text><rect x="640" y="292" width="73.2" height="22" rx="11" fill="none" stroke="#23272E"/><text x="676.6" y="307" text-anchor="middle" class="chip">pgvector</text><rect x="721.2" y="292" width="73.2" height="22" rx="11" fill="none" stroke="#23272E"/><text x="757.8000000000001" y="307" text-anchor="middle" class="chip">Supabase</text><text x="640" y="416" class="cap" style="fill:#FF7A3D">CLICK THE CARD TO OPEN ↗</text></g>
<g id="p2" class="pp"><text x="640" y="94" class="lbl">03 / 05</text><text x="640" y="136" class="big">Full-Stack Chat +</text><text x="640" y="160" class="big">Sentiment AI</text><text x="640" y="190" class="sub">Real-time chat with image</text><text x="640" y="210" class="sub">sharing and live sentiment</text><text x="640" y="230" class="sub">analysis, stored securely in</text><text x="640" y="250" class="sub">MongoDB Atlas.</text><rect x="640" y="268" width="52.5" height="22" rx="11" fill="none" stroke="#23272E"/><text x="666.25" y="283" text-anchor="middle" class="chip">React</text><rect x="700.5" y="268" width="45.6" height="22" rx="11" fill="none" stroke="#23272E"/><text x="723.3" y="283" text-anchor="middle" class="chip">Node</text><rect x="754.1" y="268" width="66.30000000000001" height="22" rx="11" fill="none" stroke="#23272E"/><text x="787.25" y="283" text-anchor="middle" class="chip">MongoDB</text><rect x="640" y="296" width="38.7" height="22" rx="11" fill="none" stroke="#23272E"/><text x="659.35" y="311" text-anchor="middle" class="chip">NLP</text><text x="640" y="416" class="cap" style="fill:#FF7A3D">CLICK THE CARD TO OPEN ↗</text></g>
<g id="p3" class="pp"><text x="640" y="94" class="lbl">04 / 05</text><text x="640" y="136" class="big">GreenSight AI</text><text x="640" y="166" class="sub">Deep-learning pipeline that</text><text x="640" y="186" class="sub">classifies off-road terrain</text><text x="640" y="206" class="sub">into 10 environmental classes</text><text x="640" y="226" class="sub">in real time.</text><rect x="640" y="244" width="59.400000000000006" height="22" rx="11" fill="none" stroke="#23272E"/><text x="669.7" y="259" text-anchor="middle" class="chip">Python</text><rect x="707.4" y="244" width="59.400000000000006" height="22" rx="11" fill="none" stroke="#23272E"/><text x="737.1" y="259" text-anchor="middle" class="chip">YOLOv8</text><rect x="774.8" y="244" width="66.30000000000001" height="22" rx="11" fill="none" stroke="#23272E"/><text x="807.9499999999999" y="259" text-anchor="middle" class="chip">PyTorch</text><text x="640" y="416" class="cap" style="fill:#FF7A3D">CLICK THE CARD TO OPEN ↗</text></g>
<g id="p4" class="pp"><text x="640" y="94" class="lbl">05 / 05</text><text x="640" y="136" class="big">Indian Sign Language</text><text x="640" y="160" class="big">Recognition</text><text x="640" y="190" class="sub">Continuous sentence formation</text><text x="640" y="210" class="sub">from signs with multi-language</text><text x="640" y="230" class="sub">text-to-speech, built</text><text x="640" y="250" class="sub">accessibility-first.</text><rect x="640" y="268" width="59.400000000000006" height="22" rx="11" fill="none" stroke="#23272E"/><text x="669.7" y="283" text-anchor="middle" class="chip">OpenCV</text><rect x="707.4" y="268" width="66.30000000000001" height="22" rx="11" fill="none" stroke="#23272E"/><text x="740.55" y="283" text-anchor="middle" class="chip">PyTorch</text><rect x="781.7" y="268" width="59.400000000000006" height="22" rx="11" fill="none" stroke="#23272E"/><text x="811.4000000000001" y="283" text-anchor="middle" class="chip">Python</text><text x="640" y="416" class="cap" style="fill:#FF7A3D">CLICK THE CARD TO OPEN ↗</text></g></g>
</g>
</svg>
